# Blender v2.80 (sub 75) OBJ File: 'Wheel'
# www.blender.org

o wheel
v -0.122992 0.135627 -0.327432
v 0.122992 0.135626 -0.327433
v 0.122992 -0.000000 -0.354410
v -0.122992 -0.000000 -0.354410
v -0.122992 0.250606 -0.250606
v 0.122992 0.250605 -0.250607
v -0.122992 0.327432 -0.135627
v 0.122992 0.327432 -0.135628
v -0.122992 0.354410 0.000000
v 0.122992 0.354410 -0.000001
v -0.122992 0.327431 0.135627
v 0.122992 0.327432 0.135626
v -0.122992 0.250605 0.250605
v 0.122992 0.250606 0.250605
v -0.122992 0.135626 0.327432
v 0.122992 0.135627 0.327432
v -0.122992 0.000000 0.354410
v 0.122992 0.000000 0.354410
v -0.122992 -0.135627 0.327432
v 0.122992 -0.135627 0.327432
v -0.122992 -0.250606 0.250605
v 0.122992 -0.250606 0.250606
v -0.122992 -0.327432 0.135627
v 0.122992 -0.327432 0.135627
v -0.122992 -0.354410 0.000000
v 0.122992 -0.354410 0.000000
v -0.122992 -0.327431 -0.135627
v 0.122992 -0.327432 -0.135627
v -0.122992 -0.250605 -0.250606
v 0.122992 -0.250605 -0.250606
v -0.122992 -0.135626 -0.327432
v 0.122992 -0.135627 -0.327432
v 0.122992 0.000000 0.000000
v -0.122992 0.000000 0.000000
vt 0.093769 0.068694
vt 0.120225 0.064096
vt 0.120225 0.084341
vt 0.094023 0.078465
vt 0.089795 0.059765
vt 0.112478 0.045393
vt 0.082706 0.053036
vt 0.098162 0.031077
vt 0.073582 0.049532
vt 0.079459 0.023330
vt 0.063812 0.049786
vt 0.059214 0.023330
vt 0.054882 0.053760
vt 0.040510 0.031077
vt 0.048153 0.060849
vt 0.026194 0.045392
vt 0.044649 0.069973
vt 0.018447 0.064096
vt 0.044903 0.079743
vt 0.018447 0.084341
vt 0.048877 0.088673
vt 0.026194 0.103045
vt 0.055966 0.095402
vt 0.040510 0.117361
vt 0.065090 0.098906
vt 0.059214 0.125108
vt 0.074861 0.098652
vt 0.079459 0.125108
vt 0.083790 0.094678
vt 0.098162 0.117361
vt 0.090519 0.087589
vt 0.112478 0.103045
vt 0.499023 0.498535
vt 0.989223 0.596043
vt 0.914595 0.776211
vt 0.069336 0.074219
vt 0.776700 0.914107
vt 0.596530 0.988736
vt 0.401517 0.988736
vt 0.221347 0.914107
vt 0.083452 0.776212
vt 0.008823 0.596042
vt 0.008823 0.401028
vt 0.083451 0.220859
vt 0.221347 0.082963
vt 0.401517 0.008335
vt 0.596531 0.008335
vt 0.776700 0.082964
vt 0.914595 0.220860
vt 0.989224 0.401029
vn -0.6657 0.2856 -0.6894
vn 0.6657 0.2856 -0.6894
vn 0.6657 -0.0000 -0.7462
vn -0.6657 -0.0000 -0.7462
vn -0.6657 0.5276 -0.5276
vn 0.6657 0.5276 -0.5276
vn -0.6657 0.6894 -0.2856
vn 0.6657 0.6894 -0.2856
vn -0.6657 0.7462 0.0000
vn 0.6657 0.7462 -0.0000
vn -0.6657 0.6894 0.2856
vn 0.6657 0.6894 0.2856
vn -0.6657 0.5276 0.5276
vn 0.6657 0.5276 0.5276
vn -0.6657 0.2856 0.6894
vn 0.6657 0.2856 0.6894
vn -0.6657 0.0000 0.7462
vn 0.6657 -0.0000 0.7462
vn -0.6657 -0.2856 0.6894
vn 0.6657 -0.2856 0.6894
vn -0.6657 -0.5276 0.5276
vn 0.6657 -0.5276 0.5276
vn -0.6657 -0.6894 0.2856
vn 0.6657 -0.6894 0.2856
vn -0.6657 -0.7462 -0.0000
vn 0.6657 -0.7462 0.0000
vn -0.6657 -0.6894 -0.2856
vn 0.6657 -0.6894 -0.2856
vn -0.6657 -0.5276 -0.5276
vn 0.6657 -0.5276 -0.5276
vn -0.6657 -0.2856 -0.6894
vn 0.6657 -0.2856 -0.6894
vn 1.0000 -0.0000 0.0000
vn -1.0000 -0.0000 0.0000
f 1/1/1 2/2/2 3/3/3
f 3/3/3 4/4/4 1/1/1
f 5/5/5 6/6/6 2/2/2
f 2/2/2 1/1/1 5/5/5
f 7/7/7 8/8/8 6/6/6
f 6/6/6 5/5/5 7/7/7
f 9/9/9 10/10/10 8/8/8
f 8/8/8 7/7/7 9/9/9
f 11/11/11 12/12/12 10/10/10
f 10/10/10 9/9/9 11/11/11
f 13/13/13 14/14/14 12/12/12
f 12/12/12 11/11/11 13/13/13
f 15/15/15 16/16/16 14/14/14
f 14/14/14 13/13/13 15/15/15
f 17/17/17 18/18/18 16/16/16
f 16/16/16 15/15/15 17/17/17
f 19/19/19 20/20/20 18/18/18
f 18/18/18 17/17/17 19/19/19
f 21/21/21 22/22/22 20/20/20
f 20/20/20 19/19/19 21/21/21
f 23/23/23 24/24/24 22/22/22
f 22/22/22 21/21/21 23/23/23
f 25/25/25 26/26/26 24/24/24
f 24/24/24 23/23/23 25/25/25
f 27/27/27 28/28/28 26/26/26
f 26/26/26 25/25/25 27/27/27
f 29/29/29 30/30/30 28/28/28
f 28/28/28 27/27/27 29/29/29
f 31/31/31 32/32/32 30/30/30
f 30/30/30 29/29/29 31/31/31
f 4/4/4 3/3/3 32/32/32
f 32/32/32 31/31/31 4/4/4
f 33/33/33 3/34/3 2/35/2
f 34/36/34 1/1/1 4/4/4
f 33/33/33 2/35/2 6/37/6
f 34/36/34 5/5/5 1/1/1
f 33/33/33 6/37/6 8/38/8
f 34/36/34 7/7/7 5/5/5
f 33/33/33 8/38/8 10/39/10
f 34/36/34 9/9/9 7/7/7
f 33/33/33 10/39/10 12/40/12
f 34/36/34 11/11/11 9/9/9
f 33/33/33 12/40/12 14/41/14
f 34/36/34 13/13/13 11/11/11
f 33/33/33 14/41/14 16/42/16
f 34/36/34 15/15/15 13/13/13
f 33/33/33 16/42/16 18/43/18
f 34/36/34 17/17/17 15/15/15
f 33/33/33 18/43/18 20/44/20
f 34/36/34 19/19/19 17/17/17
f 33/33/33 20/44/20 22/45/22
f 34/36/34 21/21/21 19/19/19
f 33/33/33 22/45/22 24/46/24
f 34/36/34 23/23/23 21/21/21
f 33/33/33 24/46/24 26/47/26
f 34/36/34 25/25/25 23/23/23
f 33/33/33 26/47/26 28/48/28
f 34/36/34 27/27/27 25/25/25
f 33/33/33 28/48/28 30/49/30
f 34/36/34 29/29/29 27/27/27
f 33/33/33 30/49/30 32/50/32
f 34/36/34 31/31/31 29/29/29
f 33/33/33 32/50/32 3/34/3
f 34/36/34 4/4/4 31/31/31
